<?xml version="1.0" encoding="UTF-8" ?>
<!DOCTYPE svg PUBLIC "-//W3C//DTD SVG 1.1//EN" "http://www.w3.org/Graphics/SVG/1.1/DTD/svg11.dtd">
<svg width="920pt" height="920pt" viewBox="0 0 920 920" version="1.1" xmlns="http://www.w3.org/2000/svg">
<g id="#ffffffff">
<path fill="#ffffff" opacity="1.00" d=" M 513.98 133.54 C 517.33 133.64 520.68 133.66 524.03 133.56 C 524.03 143.93 524.03 154.30 524.03 164.67 C 520.67 164.57 517.32 164.57 513.97 164.67 C 513.95 154.29 514.00 143.92 513.98 133.54 Z" />
<path fill="#ffffff" opacity="1.00" d=" M 246.28 175.36 C 250.16 174.79 254.10 175.03 258.01 175.00 C 355.32 175.00 452.63 175.00 549.94 175.00 C 560.00 174.98 570.21 178.46 577.70 185.27 C 586.66 193.11 591.74 205.11 591.26 216.99 C 591.29 403.32 591.26 589.66 591.27 775.99 C 591.49 791.99 581.19 807.37 566.40 813.40 C 558.15 817.18 548.90 817.08 540.03 816.86 C 445.02 816.88 350.02 816.84 255.01 816.88 C 245.15 817.36 235.19 814.56 227.11 808.87 C 216.96 801.18 209.90 788.91 210.43 775.94 C 210.22 691.97 210.43 608.00 210.33 524.03 C 210.41 427.35 210.25 330.67 210.41 234.00 C 210.78 223.70 208.90 213.04 212.38 203.09 C 216.96 188.26 230.88 177.00 246.28 175.36 M 249.38 204.58 C 243.81 205.16 240.00 210.60 239.78 215.92 C 239.87 293.97 239.78 372.02 239.82 450.07 C 239.81 456.45 245.56 461.96 252.00 461.45 C 349.34 461.52 446.69 461.45 544.04 461.49 C 547.59 461.44 551.23 461.75 554.68 460.72 C 559.44 459.05 562.21 453.88 561.97 448.99 C 561.93 371.30 562.01 293.60 561.93 215.90 C 562.10 210.69 558.09 205.87 553.06 204.77 C 549.40 204.13 545.66 204.51 541.96 204.46 C 444.44 204.58 346.89 204.33 249.38 204.58 M 383.60 511.79 C 348.72 516.45 316.23 536.23 296.07 565.06 C 276.05 592.59 268.43 628.50 274.52 661.90 C 281.03 700.89 307.40 735.65 342.53 753.50 C 362.56 763.91 385.47 768.56 407.98 767.28 C 444.31 765.68 479.30 747.19 501.64 718.59 C 521.59 693.61 531.68 660.88 528.86 629.02 C 526.17 589.98 504.00 552.99 471.18 531.79 C 445.74 514.64 413.94 507.79 383.60 511.79 Z" />
<path fill="#ffffff" opacity="1.00" d=" M 249.44 214.53 C 251.34 213.22 253.82 214.01 255.97 213.80 C 353.66 213.85 451.35 213.81 549.03 213.82 C 550.23 213.91 551.40 214.16 552.55 214.58 C 552.50 293.53 552.52 372.49 552.54 451.44 C 551.39 451.82 550.23 452.07 549.05 452.17 C 452.36 452.19 355.68 452.17 259.00 452.18 C 255.75 452.19 252.47 452.39 249.28 451.65 C 249.05 375.78 249.27 299.91 249.17 224.05 C 249.20 220.87 248.86 217.66 249.44 214.53 M 325.11 258.92 C 324.16 259.69 323.82 260.66 324.10 261.85 C 325.82 263.54 327.94 264.73 329.91 266.11 C 364.41 289.59 398.82 313.21 433.37 336.62 C 435.58 338.28 437.19 334.04 434.84 333.19 C 399.22 308.76 363.47 284.51 327.83 260.11 C 327.00 259.51 326.09 259.11 325.11 258.92 M 355.13 329.07 C 353.18 330.08 354.04 332.59 355.78 333.28 C 391.64 357.70 427.42 382.25 463.33 406.59 C 465.57 408.37 467.20 404.00 464.84 403.19 C 429.44 378.91 393.91 354.82 358.50 330.56 C 357.42 330.01 356.45 328.77 355.13 329.07 Z" />
<path fill="#ffffff" opacity="1.00" d=" M 389.51 520.69 C 411.35 518.75 434.04 522.29 453.59 532.48 C 480.57 545.59 502.02 569.52 512.40 597.64 C 517.69 610.40 519.35 624.31 520.07 638.00 C 519.88 646.41 519.03 654.82 517.55 663.12 C 510.80 695.72 489.83 725.20 460.93 741.83 C 436.09 756.76 405.51 761.53 377.19 755.72 C 342.10 749.00 311.02 724.99 294.87 693.22 C 276.50 658.17 277.62 613.75 297.81 579.70 C 316.52 546.83 351.72 523.84 389.51 520.69 M 395.18 589.25 C 381.63 590.69 368.95 597.98 360.78 608.86 C 351.89 620.67 348.26 636.58 352.09 650.98 C 354.78 662.75 362.13 673.15 371.85 680.20 C 383.35 688.17 398.25 691.34 411.92 688.05 C 433.96 683.70 451.24 662.51 450.93 640.04 C 451.62 624.66 444.25 609.28 432.14 599.85 C 421.97 591.50 408.19 587.70 395.18 589.25 Z" />
<path fill="#ffffff" opacity="1.00" d=" M 395.49 598.62 C 415.65 595.51 436.84 609.95 440.64 630.13 C 443.53 642.55 440.27 656.27 431.80 665.87 C 423.94 674.86 412.01 680.56 399.97 679.90 C 389.73 680.04 379.94 675.36 372.44 668.60 C 365.12 661.31 360.37 651.32 360.00 640.94 C 359.34 629.76 363.91 618.65 371.56 610.59 C 377.95 604.11 386.49 599.90 395.49 598.62 Z" />
</g>
<g id="#676767ff">
<path fill="#676767" opacity="1.00" d=" M 576.54 95.37 C 593.87 91.89 612.94 93.38 628.19 102.88 C 643.61 112.15 654.03 127.75 660.94 144.03 C 666.09 156.93 670.22 170.31 672.30 184.07 C 676.60 206.75 678.37 229.88 678.00 252.95 C 677.80 267.24 678.53 281.58 677.26 295.84 C 676.05 325.90 673.65 355.93 672.79 386.02 C 671.74 397.98 672.25 410.00 671.46 421.97 C 670.56 465.37 669.96 508.92 674.22 552.18 C 675.87 566.95 678.27 581.69 682.14 596.06 C 686.50 610.73 693.50 625.53 706.05 634.91 C 709.79 637.53 712.06 641.59 715.01 644.98 C 730.63 662.55 744.61 681.72 755.38 702.65 C 762.53 715.74 767.50 730.12 769.52 744.92 C 770.64 753.45 769.92 762.08 767.99 770.44 C 775.41 776.15 779.77 785.55 779.38 794.91 C 779.02 803.26 775.41 811.64 769.03 817.15 C 760.92 824.23 748.98 826.54 738.80 823.07 C 725.70 818.59 716.76 804.67 718.36 790.89 C 719.48 782.33 723.83 773.92 731.13 769.07 C 739.15 763.34 749.82 761.93 759.11 765.21 C 761.71 752.57 759.44 739.51 755.53 727.39 C 749.76 711.04 741.02 695.92 731.26 681.66 C 726.69 675.29 722.41 668.66 717.14 662.84 C 717.09 681.02 710.78 698.35 704.00 714.97 C 694.72 735.90 683.47 756.01 669.60 774.27 C 675.37 781.27 678.32 790.96 676.23 799.92 C 674.54 809.54 667.65 817.77 658.99 822.02 C 647.34 827.32 632.56 824.45 623.85 815.04 C 616.90 807.57 614.18 796.53 616.55 786.64 C 618.62 778.01 624.86 770.67 632.65 766.56 C 641.98 761.99 653.44 762.58 662.34 767.91 C 670.96 756.03 678.99 743.69 685.66 730.60 C 692.67 716.68 699.55 702.53 703.44 687.37 C 706.29 677.56 708.19 667.27 707.17 657.03 C 706.71 651.15 703.85 645.38 699.11 641.81 C 686.74 632.44 678.91 618.24 674.41 603.63 C 668.13 585.39 665.95 566.08 664.09 546.98 C 661.50 517.74 660.83 488.34 661.14 458.99 C 660.94 442.31 662.14 425.67 662.17 408.99 C 663.03 398.99 662.78 388.96 663.32 378.95 C 664.19 371.31 663.88 363.60 664.38 355.93 C 665.32 338.60 666.29 321.28 667.20 303.96 C 666.97 297.62 668.35 291.36 668.08 285.02 C 668.97 246.19 668.89 206.75 658.91 168.94 C 653.44 149.79 645.94 129.96 630.43 116.63 C 620.88 107.95 607.82 103.68 595.06 103.35 C 578.76 103.20 562.93 108.40 548.34 115.31 C 543.22 117.64 538.54 120.81 533.46 123.22 C 534.06 127.45 533.74 131.73 533.74 135.98 C 533.64 145.74 533.91 155.50 533.75 165.26 C 544.83 165.59 556.32 164.00 566.97 167.96 C 586.70 174.33 601.27 194.17 600.96 214.96 C 600.97 402.30 600.96 589.64 600.97 776.98 C 601.19 798.51 585.32 818.46 564.87 824.44 C 561.29 825.22 557.67 825.95 554.01 826.23 C 459.36 826.22 364.70 826.23 270.04 826.23 C 260.08 825.65 249.99 827.32 240.15 825.21 C 218.40 820.83 201.07 800.24 200.74 778.01 C 200.54 767.67 200.29 757.33 200.59 747.00 C 200.43 618.34 200.60 489.68 200.50 361.02 C 200.86 350.69 200.21 340.35 200.53 330.01 C 200.83 320.02 200.22 310.03 200.52 300.05 C 200.83 290.37 200.25 280.70 200.50 271.03 C 200.86 259.69 200.16 248.34 200.59 236.99 C 200.95 224.45 198.95 211.42 203.42 199.36 C 209.54 179.62 229.40 165.56 249.91 165.26 C 334.70 165.29 419.49 165.25 504.28 165.28 C 504.24 151.47 504.30 137.66 504.25 123.85 C 507.98 124.01 511.73 124.08 515.47 123.85 C 523.45 117.34 532.58 112.43 541.60 107.54 C 552.79 102.33 564.23 97.22 576.54 95.37 M 513.98 133.54 C 514.00 143.92 513.95 154.29 513.97 164.67 C 517.32 164.57 520.67 164.57 524.03 164.67 C 524.03 154.30 524.03 143.93 524.03 133.56 C 520.68 133.66 517.33 133.64 513.98 133.54 M 246.28 175.36 C 230.88 177.00 216.96 188.26 212.38 203.09 C 208.90 213.04 210.78 223.70 210.41 234.00 C 210.25 330.67 210.41 427.35 210.33 524.03 C 210.43 608.00 210.22 691.97 210.43 775.94 C 209.90 788.91 216.96 801.18 227.11 808.87 C 235.19 814.56 245.15 817.36 255.01 816.88 C 350.02 816.84 445.02 816.88 540.03 816.86 C 548.90 817.08 558.15 817.18 566.40 813.40 C 581.19 807.37 591.49 791.99 591.27 775.99 C 591.26 589.66 591.29 403.32 591.26 216.99 C 591.74 205.11 586.66 193.11 577.70 185.27 C 570.21 178.46 560.00 174.98 549.94 175.00 C 452.63 175.00 355.32 175.00 258.01 175.00 C 254.10 175.03 250.16 174.79 246.28 175.36 Z" />
<path fill="#676767" opacity="1.00" d=" M 249.38 204.58 C 346.89 204.33 444.44 204.58 541.96 204.46 C 545.66 204.51 549.40 204.13 553.06 204.77 C 558.09 205.87 562.10 210.69 561.93 215.90 C 562.01 293.60 561.93 371.30 561.97 448.99 C 562.21 453.88 559.44 459.05 554.68 460.72 C 551.23 461.75 547.59 461.44 544.04 461.49 C 446.69 461.45 349.34 461.52 252.00 461.45 C 245.56 461.96 239.81 456.45 239.82 450.07 C 239.78 372.02 239.87 293.97 239.78 215.92 C 240.00 210.60 243.81 205.16 249.38 204.58 M 249.44 214.53 C 248.86 217.66 249.20 220.87 249.17 224.05 C 249.27 299.91 249.05 375.78 249.28 451.65 C 252.47 452.39 255.75 452.19 259.00 452.18 C 355.68 452.17 452.36 452.19 549.05 452.17 C 550.23 452.07 551.39 451.82 552.54 451.44 C 552.52 372.49 552.50 293.53 552.55 214.58 C 551.40 214.16 550.23 213.91 549.03 213.82 C 451.35 213.81 353.66 213.85 255.97 213.80 C 253.82 214.01 251.34 213.22 249.44 214.53 Z" />
<path fill="#676767" opacity="1.00" d=" M 325.11 258.92 C 326.09 259.11 327.00 259.51 327.83 260.11 C 363.47 284.51 399.22 308.76 434.84 333.19 C 437.19 334.04 435.58 338.28 433.37 336.62 C 398.82 313.21 364.41 289.59 329.91 266.11 C 327.94 264.73 325.82 263.54 324.10 261.85 C 323.82 260.66 324.16 259.69 325.11 258.92 Z" />
<path fill="#676767" opacity="1.00" d=" M 355.13 329.07 C 356.45 328.77 357.42 330.01 358.50 330.56 C 393.91 354.82 429.44 378.91 464.84 403.19 C 467.20 404.00 465.57 408.37 463.33 406.59 C 427.42 382.25 391.64 357.70 355.78 333.28 C 354.04 332.59 353.18 330.08 355.13 329.07 Z" />
<path fill="#676767" opacity="1.00" d=" M 383.60 511.79 C 413.94 507.79 445.74 514.64 471.18 531.79 C 504.00 552.99 526.17 589.98 528.86 629.02 C 531.68 660.88 521.59 693.61 501.64 718.59 C 479.30 747.19 444.31 765.68 407.98 767.28 C 385.47 768.56 362.56 763.91 342.53 753.50 C 307.40 735.65 281.03 700.89 274.52 661.90 C 268.43 628.50 276.05 592.59 296.07 565.06 C 316.23 536.23 348.72 516.45 383.60 511.79 M 389.51 520.69 C 351.72 523.84 316.52 546.83 297.81 579.70 C 277.62 613.75 276.50 658.17 294.87 693.22 C 311.02 724.99 342.10 749.00 377.19 755.72 C 405.51 761.53 436.09 756.76 460.93 741.83 C 489.83 725.20 510.80 695.72 517.55 663.12 C 519.03 654.82 519.88 646.41 520.07 638.00 C 519.35 624.31 517.69 610.40 512.40 597.64 C 502.02 569.52 480.57 545.59 453.59 532.48 C 434.04 522.29 411.35 518.75 389.51 520.69 Z" />
<path fill="#676767" opacity="1.00" d=" M 395.18 589.25 C 408.19 587.70 421.97 591.50 432.14 599.85 C 444.25 609.28 451.62 624.66 450.93 640.04 C 451.24 662.51 433.96 683.70 411.92 688.05 C 398.25 691.34 383.35 688.17 371.85 680.20 C 362.13 673.15 354.78 662.75 352.09 650.98 C 348.26 636.58 351.89 620.67 360.78 608.86 C 368.95 597.98 381.63 590.69 395.18 589.25 M 395.49 598.62 C 386.49 599.90 377.95 604.11 371.56 610.59 C 363.91 618.65 359.34 629.76 360.00 640.94 C 360.37 651.32 365.12 661.31 372.44 668.60 C 379.94 675.36 389.73 680.04 399.97 679.90 C 412.01 680.56 423.94 674.86 431.80 665.87 C 440.27 656.27 443.53 642.55 440.64 630.13 C 436.84 609.95 415.65 595.51 395.49 598.62 Z" />
</g>
</svg>
